Simulation
nRows=23
nColumns=15
endheader
time  TH_x TH_y TH_z SC_y  SC_z  SC_x  AC_y  AC_z  AC_x  GH_y  GH_z  GH_yy  EL_x  PS_y
2.4010000000000002  0.000000  0.000000  0.000000  -42.75468921506846  8.763720691972447  -11.394496768398513  49.00943734230793  20.741773815295627  10.410011001419806  9.004268112085107  22.958639521809978  11.462372275689628  11.292430418652089  120.000000
2.4490200000000004  0.000000  0.000000  0.000000  -41.45247221305987  7.988718860971341  -11.777401579621714  49.4161121490192  20.101975080892736  9.82064294785323  9.162163648122291  19.211881365197982  15.590854977755164  11.610277824459333  120.000000
2.49704  0.000000  0.000000  0.000000  -40.10194547237287  7.160596717635644  -12.09089147157072  49.94909721972595  19.503265269179664  9.274740085813589  8.205136874237995  15.943571408616972  20.86564687888335  12.163142090449506  120.000000
2.5450600000000003  0.000000  0.000000  0.000000  -38.76655496491476  6.307872239751483  -12.319707389898406  50.610065594415424  18.968254009077423  8.786293587997068  5.989158145814906  13.199197414501054  27.230420187347917  12.962146920869888  120.000000
2.5930800000000005  0.000000  0.000000  0.000000  -37.51540382113347  5.466226573672638  -12.447980528143296  51.38577473469652  18.51670322703062  8.365188131981881  2.688633815719742  10.986529882198383  34.3212279007517  13.944923297305754  120.000000
2.6411000000000002  0.000000  0.000000  0.000000  -36.416526302225066  4.677172648686521  -12.466506284329684  52.24629145870735  18.162643089256594  8.014309011739954  -1.0696159018092168  9.257621889348993  41.35458102492863  15.006807835142874  120.000000
2.6891200000000004  0.000000  0.000000  0.000000  -35.52525022097944  3.9804263952537133  -12.376764305752202  53.143585786959314  17.912305968778803  7.731254404750453  -4.294440438712165  7.911169878388914  47.236785178133516  16.036952196848144  120.000000
2.7371400000000006  0.000000  0.000000  0.000000  -34.87007849226542  3.407694533796213  -12.19188152675205  54.01670810444677  17.763860288158895  7.5101082287038095  -5.947900186902422  6.8301098187207065  50.89725093486667  16.94458586996278  120.000000
2.7851600000000003  0.000000  0.000000  0.000000  -34.44232633597685  2.979113139483582  -11.93219416397849  54.808944527957195  17.70652935945635  7.340540197491757  -5.23858932373918  5.932521687054754  51.58635943049238  17.671165661861387  120.000000
2.8331800000000005  0.000000  0.000000  0.000000  -34.19997345114814  2.701435562967809  -11.620211886803933  55.483352820553755  17.722589700975  7.208853438702729  -1.6878219099744582  5.198260461488098  48.92670516164303  18.188307701430237  120.000000
2.8812000000000006  0.000000  0.000000  0.000000  -34.085358335846955  2.5664987504288144  -11.278814866805421  56.025829152334225  17.790467217322554  7.10280635561681  4.755100240085479  4.660601445058931  42.99998639029198  18.489309038116442  120.000000
2.9292200000000004  0.000000  0.000000  0.000000  -34.04846300401221  2.5488523347717345  -10.930090579743979  56.43363041357281  17.884266499721537  7.016123985230432  13.292501665149361  4.371054487764515  34.73823709107731  18.58283636470285  120.000000
2.9772400000000006  0.000000  0.000000  0.000000  -34.05723915206767  2.6138214152460053  -10.595477376937861  56.708290604062206  17.97317079253529  6.948092567003265  22.12980345656261  4.349580860030194  26.050389859967215  18.494858318502214  120.000000
3.0252600000000003  0.000000  0.000000  0.000000  -34.09187430658077  2.727980502497142  -10.299753937022047  56.86039827307351  18.027090882323826  6.898129543699146  29.396654072543292  4.56230241980756  18.889268615719967  18.270095290650147  120.000000
3.0732800000000005  0.000000  0.000000  0.000000  -34.13019428098126  2.8576378723232905  -10.074440835609948  56.91863611749026  18.022231418475243  6.87174562451912  34.32207434101396  4.950609867900297  14.075533016108787  17.969505448722675  120.000000
3.1213000000000006  0.000000  0.000000  0.000000  -34.13460690581214  2.968482394006696  -9.947180641237749  56.92319439598289  17.934519611991963  6.878314261131149  37.242476609702194  5.471144069634285  11.297816858101474  17.660847208918973  120.000000
3.1693200000000004  0.000000  0.000000  0.000000  -34.06789296479276  3.036805458332706  -9.936120167917089  56.896943868515  17.748371008386393  6.914653422601939  38.739641761816934  6.101786874878031  9.97539388457297  17.39208078502403  120.000000
3.2173400000000005  0.000000  0.000000  0.000000  -33.91134741239321  3.061050533327924  -10.052332390663256  56.83696543893416  17.469486846018683  6.964021829755769  39.146266692565284  6.829808456010946  9.759010441611911  17.166255656718086  120.000000
3.2653600000000003  0.000000  0.000000  0.000000  -33.66827347588318  3.0520384472597546  -10.295209646869534  56.72178475051201  17.120470317685225  7.006866667034541  38.60704363475792  7.6483998435790825  10.479524264812508  16.943138275513487  120.000000
3.3133800000000004  0.000000  0.000000  0.000000  -33.356291199157084  3.017046682555906  -10.650925052278925  56.52522728077247  16.731983831238544  7.031816306979483  37.260920837016826  8.562720798979065  11.97032181820441  16.6598416697244  120.000000
3.3614000000000006  0.000000  0.000000  0.000000  -32.99474174355924  2.952971125715462  -11.100784539939735  56.232752399782896  16.338987465929065  7.041067269912247  35.327485128723374  9.59537060564571  13.980576010603288  16.259344476479725  120.000000
3.4094200000000003  0.000000  0.000000  0.000000  -32.599743874396935  2.849761721095516  -11.627192593843448  55.849931360539486  15.979687200506204  7.041014678152966  33.05405105365532  10.785964127433667  16.225868096494207  15.715376031113848  120.000000
3.4574400000000005  0.000000  0.000000  0.000000  -32.18644143049454  2.699720470039103  -12.210263014028182  55.399933697234566  15.689810589016057  7.0334044014589825  30.66081213903134  12.18282226978205  18.4472208441083  15.04648493353982  120.000000
